<svg width="35" height="35" viewBox="0 0 35 35" fill="none" xmlns="http://www.w3.org/2000/svg">
<path d="M8.75 5.46875C8.75 5.17867 8.86523 4.90047 9.07035 4.69535C9.27547 4.49023 9.55367 4.375 9.84375 4.375H12.0312C12.3213 4.375 12.5995 4.49023 12.8046 4.69535C13.0098 4.90047 13.125 5.17867 13.125 5.46875V7.65625C13.125 7.94633 13.0098 8.22453 12.8046 8.42965C12.5995 8.63477 12.3213 8.75 12.0312 8.75H9.84375C9.55367 8.75 9.27547 8.63477 9.07035 8.42965C8.86523 8.22453 8.75 7.94633 8.75 7.65625V5.46875ZM15.3125 5.46875C15.3125 5.17867 15.4277 4.90047 15.6329 4.69535C15.838 4.49023 16.1162 4.375 16.4062 4.375H18.5938C18.8838 4.375 19.162 4.49023 19.3671 4.69535C19.5723 4.90047 19.6875 5.17867 19.6875 5.46875V7.65625C19.6875 7.94633 19.5723 8.22453 19.3671 8.42965C19.162 8.63477 18.8838 8.75 18.5938 8.75H16.4062C16.1162 8.75 15.838 8.63477 15.6329 8.42965C15.4277 8.22453 15.3125 7.94633 15.3125 7.65625V5.46875ZM22.9688 4.375C22.6787 4.375 22.4005 4.49023 22.1954 4.69535C21.9902 4.90047 21.875 5.17867 21.875 5.46875V7.65625C21.875 7.94633 21.9902 8.22453 22.1954 8.42965C22.4005 8.63477 22.6787 8.75 22.9688 8.75H25.1562C25.4463 8.75 25.7245 8.63477 25.9296 8.42965C26.1348 8.22453 26.25 7.94633 26.25 7.65625V5.46875C26.25 5.17867 26.1348 4.90047 25.9296 4.69535C25.7245 4.49023 25.4463 4.375 25.1562 4.375H22.9688ZM8.75 12.0312C8.75 11.7412 8.86523 11.463 9.07035 11.2579C9.27547 11.0527 9.55367 10.9375 9.84375 10.9375H12.0312C12.3213 10.9375 12.5995 11.0527 12.8046 11.2579C13.0098 11.463 13.125 11.7412 13.125 12.0312V14.2188C13.125 14.5088 13.0098 14.787 12.8046 14.9921C12.5995 15.1973 12.3213 15.3125 12.0312 15.3125H9.84375C9.55367 15.3125 9.27547 15.1973 9.07035 14.9921C8.86523 14.787 8.75 14.5088 8.75 14.2188V12.0312ZM16.4062 10.9375C16.1162 10.9375 15.838 11.0527 15.6329 11.2579C15.4277 11.463 15.3125 11.7412 15.3125 12.0312V14.2188C15.3125 14.5088 15.4277 14.787 15.6329 14.9921C15.838 15.1973 16.1162 15.3125 16.4062 15.3125H18.5938C18.8838 15.3125 19.162 15.1973 19.3671 14.9921C19.5723 14.787 19.6875 14.5088 19.6875 14.2188V12.0312C19.6875 11.7412 19.5723 11.463 19.3671 11.2579C19.162 11.0527 18.8838 10.9375 18.5938 10.9375H16.4062ZM21.875 12.0312C21.875 11.7412 21.9902 11.463 22.1954 11.2579C22.4005 11.0527 22.6787 10.9375 22.9688 10.9375H25.1562C25.4463 10.9375 25.7245 11.0527 25.9296 11.2579C26.1348 11.463 26.25 11.7412 26.25 12.0312V14.2188C26.25 14.5088 26.1348 14.787 25.9296 14.9921C25.7245 15.1973 25.4463 15.3125 25.1562 15.3125H22.9688C22.6787 15.3125 22.4005 15.1973 22.1954 14.9921C21.9902 14.787 21.875 14.5088 21.875 14.2188V12.0312ZM9.84375 17.5C9.55367 17.5 9.27547 17.6152 9.07035 17.8204C8.86523 18.0255 8.75 18.3037 8.75 18.5938V20.7812C8.75 21.0713 8.86523 21.3495 9.07035 21.5546C9.27547 21.7598 9.55367 21.875 9.84375 21.875H12.0312C12.3213 21.875 12.5995 21.7598 12.8046 21.5546C13.0098 21.3495 13.125 21.0713 13.125 20.7812V18.5938C13.125 18.3037 13.0098 18.0255 12.8046 17.8204C12.5995 17.6152 12.3213 17.5 12.0312 17.5H9.84375ZM15.3125 18.5938C15.3125 18.3037 15.4277 18.0255 15.6329 17.8204C15.838 17.6152 16.1162 17.5 16.4062 17.5H18.5938C18.8838 17.5 19.162 17.6152 19.3671 17.8204C19.5723 18.0255 19.6875 18.3037 19.6875 18.5938V20.7812C19.6875 21.0713 19.5723 21.3495 19.3671 21.5546C19.162 21.7598 18.8838 21.875 18.5938 21.875H16.4062C16.1162 21.875 15.838 21.7598 15.6329 21.5546C15.4277 21.3495 15.3125 21.0713 15.3125 20.7812V18.5938ZM22.9688 17.5C22.6787 17.5 22.4005 17.6152 22.1954 17.8204C21.9902 18.0255 21.875 18.3037 21.875 18.5938V20.7812C21.875 21.0713 21.9902 21.3495 22.1954 21.5546C22.4005 21.7598 22.6787 21.875 22.9688 21.875H25.1562C25.4463 21.875 25.7245 21.7598 25.9296 21.5546C26.1348 21.3495 26.25 21.0713 26.25 20.7812V18.5938C26.25 18.3037 26.1348 18.0255 25.9296 17.8204C25.7245 17.6152 25.4463 17.5 25.1562 17.5H22.9688Z" fill="#459CFF"/>
<path d="M4.375 2.1875C4.375 1.60734 4.60547 1.05094 5.0157 0.640704C5.42594 0.230468 5.98234 0 6.5625 0L28.4375 0C29.0177 0 29.5741 0.230468 29.9843 0.640704C30.3945 1.05094 30.625 1.60734 30.625 2.1875V32.8125C30.625 33.3927 30.3945 33.9491 29.9843 34.3593C29.5741 34.7695 29.0177 35 28.4375 35H6.5625C5.98234 35 5.42594 34.7695 5.0157 34.3593C4.60547 33.9491 4.375 33.3927 4.375 32.8125V2.1875ZM28.4375 2.1875H6.5625V32.8125H13.125V27.3438C13.125 27.0537 13.2402 26.7755 13.4454 26.5704C13.6505 26.3652 13.9287 26.25 14.2188 26.25H20.7812C21.0713 26.25 21.3495 26.3652 21.5546 26.5704C21.7598 26.7755 21.875 27.0537 21.875 27.3438V32.8125H28.4375V2.1875Z" fill="#459CFF"/>
</svg>
