<svg width="22" height="22" viewBox="0 0 22 22" fill="none" xmlns="http://www.w3.org/2000/svg">
<path d="M11 20.625C8.44729 20.625 5.99913 19.6109 4.1941 17.8059C2.38906 16.0009 1.375 13.5527 1.375 11C1.375 8.44729 2.38906 5.99913 4.1941 4.1941C5.99913 2.38906 8.44729 1.375 11 1.375C13.5527 1.375 16.0009 2.38906 17.8059 4.1941C19.6109 5.99913 20.625 8.44729 20.625 11C20.625 13.5527 19.6109 16.0009 17.8059 17.8059C16.0009 19.6109 13.5527 20.625 11 20.625ZM11 22C13.9174 22 16.7153 20.8411 18.7782 18.7782C20.8411 16.7153 22 13.9174 22 11C22 8.08262 20.8411 5.28473 18.7782 3.22183C16.7153 1.15893 13.9174 0 11 0C8.08262 0 5.28473 1.15893 3.22183 3.22183C1.15893 5.28473 0 8.08262 0 11C0 13.9174 1.15893 16.7153 3.22183 18.7782C5.28473 20.8411 8.08262 22 11 22Z" fill="#7F7F7F" fill-opacity="0.8"/>
<path d="M9.62769 15.1255C9.62769 14.945 9.66325 14.7662 9.73235 14.5993C9.80145 14.4325 9.90273 14.2809 10.0304 14.1533C10.1581 14.0256 10.3097 13.9243 10.4765 13.8552C10.6433 13.7861 10.8221 13.7505 11.0027 13.7505C11.1833 13.7505 11.3621 13.7861 11.5289 13.8552C11.6957 13.9243 11.8473 14.0256 11.975 14.1533C12.1026 14.2809 12.2039 14.4325 12.273 14.5993C12.3421 14.7662 12.3777 14.945 12.3777 15.1255C12.3777 15.4902 12.2328 15.8399 11.975 16.0978C11.7171 16.3557 11.3674 16.5005 11.0027 16.5005C10.638 16.5005 10.2883 16.3557 10.0304 16.0978C9.77255 15.8399 9.62769 15.4902 9.62769 15.1255ZM9.76244 6.86865C9.74413 6.69518 9.76249 6.5198 9.81634 6.35389C9.87018 6.18798 9.95831 6.03524 10.075 5.90558C10.1917 5.77593 10.3343 5.67226 10.4937 5.60129C10.653 5.53032 10.8255 5.49365 10.9999 5.49365C11.1744 5.49365 11.3469 5.53032 11.5062 5.60129C11.6655 5.67226 11.8082 5.77593 11.9249 5.90558C12.0416 6.03524 12.1297 6.18798 12.1835 6.35389C12.2374 6.5198 12.2557 6.69518 12.2374 6.86865L11.7562 11.6908C11.74 11.8802 11.6533 12.0567 11.5133 12.1853C11.3733 12.3139 11.1901 12.3852 10.9999 12.3852C10.8098 12.3852 10.6266 12.3139 10.4866 12.1853C10.3465 12.0567 10.2599 11.8802 10.2437 11.6908L9.76244 6.86865Z" fill="#7F7F7F" fill-opacity="0.8"/>
</svg>
