<svg width="43" height="43" viewBox="0 0 43 43" fill="none" xmlns="http://www.w3.org/2000/svg">
<path d="M21.5 40.3125C16.5106 40.3125 11.7256 38.3305 8.19755 34.8024C4.66953 31.2744 2.6875 26.4894 2.6875 21.5C2.6875 16.5106 4.66953 11.7256 8.19755 8.19755C11.7256 4.66953 16.5106 2.6875 21.5 2.6875C26.4894 2.6875 31.2744 4.66953 34.8024 8.19755C38.3305 11.7256 40.3125 16.5106 40.3125 21.5C40.3125 26.4894 38.3305 31.2744 34.8024 34.8024C31.2744 38.3305 26.4894 40.3125 21.5 40.3125ZM21.5 43C27.2022 43 32.6708 40.7348 36.7028 36.7028C40.7348 32.6708 43 27.2022 43 21.5C43 15.7978 40.7348 10.3292 36.7028 6.2972C32.6708 2.26517 27.2022 0 21.5 0C15.7978 0 10.3292 2.26517 6.2972 6.2972C2.26517 10.3292 0 15.7978 0 21.5C0 27.2022 2.26517 32.6708 6.2972 36.7028C10.3292 40.7348 15.7978 43 21.5 43Z" fill="#E51D1D"/>
<path d="M18.8179 29.5628C18.8179 29.2098 18.8874 28.8604 19.0224 28.5343C19.1575 28.2082 19.3555 27.912 19.605 27.6624C19.8546 27.4128 20.1508 27.2149 20.4769 27.0798C20.803 26.9448 21.1524 26.8753 21.5054 26.8753C21.8583 26.8753 22.2078 26.9448 22.5338 27.0798C22.8599 27.2149 23.1562 27.4128 23.4057 27.6624C23.6553 27.912 23.8532 28.2082 23.9883 28.5343C24.1234 28.8604 24.1929 29.2098 24.1929 29.5628C24.1929 30.2755 23.9097 30.9591 23.4057 31.4631C22.9017 31.9671 22.2181 32.2503 21.5054 32.2503C20.7926 32.2503 20.109 31.9671 19.605 31.4631C19.101 30.9591 18.8179 30.2755 18.8179 29.5628ZM19.0812 13.4243C19.0455 13.0853 19.0814 12.7425 19.1866 12.4182C19.2918 12.0939 19.4641 11.7954 19.6922 11.542C19.9202 11.2885 20.199 11.0859 20.5105 10.9472C20.8219 10.8085 21.1591 10.7368 21.5 10.7368C21.8409 10.7368 22.1781 10.8085 22.4895 10.9472C22.8009 11.0859 23.0798 11.2885 23.3078 11.542C23.5359 11.7954 23.7081 12.0939 23.8134 12.4182C23.9186 12.7425 23.9545 13.0853 23.9187 13.4243L22.9781 22.8494C22.9465 23.2196 22.7771 23.5646 22.5034 23.8159C22.2297 24.0672 21.8716 24.2067 21.5 24.2067C21.1284 24.2067 20.7703 24.0672 20.4966 23.8159C20.2229 23.5646 20.0535 23.2196 20.0219 22.8494L19.0812 13.4243Z" fill="#E51D1D"/>
</svg>
