<svg width="36" height="40" viewBox="0 0 36 40" fill="none" xmlns="http://www.w3.org/2000/svg">
<path d="M18 39.5862C19.3271 39.5862 20.5999 39.0649 21.5383 38.137C22.4767 37.209 23.0039 35.9505 23.0039 34.6382H12.9961C12.9961 35.9505 13.5233 37.209 14.4617 38.137C15.4001 39.0649 16.6729 39.5862 18 39.5862ZM18 4.7473L16.006 5.14562C13.7437 5.60046 11.71 6.81472 10.2495 8.58263C8.78903 10.3505 7.99158 12.5634 7.99227 14.8462C7.99227 16.3999 7.65701 20.2816 6.84389 24.1039C6.44358 26.0015 5.90316 27.9782 5.18511 29.6902H30.8149C30.0968 27.9782 29.5589 26.0039 29.1561 24.1039C28.343 20.2816 28.0077 16.3999 28.0077 14.8462C28.0078 12.5638 27.2101 10.3516 25.7497 8.58415C24.2892 6.81675 22.2559 5.60285 19.994 5.14809L18 4.7473ZM33.562 29.6902C34.1199 30.7961 34.7654 31.6719 35.5135 32.1642H0.486481C1.23456 31.6719 1.88006 30.7961 2.43799 29.6902C4.68972 25.237 5.49034 17.0233 5.49034 14.8462C5.49034 8.85909 9.79366 3.86161 15.5106 2.72109C15.4757 2.37709 15.514 2.02967 15.6232 1.70124C15.7325 1.37281 15.9101 1.07066 16.1446 0.814276C16.3792 0.557891 16.6655 0.352965 16.985 0.212713C17.3046 0.0724622 17.6504 0 18 0C18.3496 0 18.6954 0.0724622 19.0149 0.212713C19.3345 0.352965 19.6208 0.557891 19.8554 0.814276C20.0899 1.07066 20.2675 1.37281 20.3767 1.70124C20.486 2.02967 20.5243 2.37709 20.4894 2.72109C23.3177 3.289 25.8605 4.80647 27.6867 7.01629C29.5129 9.22611 30.5102 11.9924 30.5096 14.8462C30.5096 17.0233 31.3103 25.237 33.562 29.6902Z" fill="white"/>
</svg>
