<svg width="25" height="25" viewBox="0 0 25 25" fill="none" xmlns="http://www.w3.org/2000/svg">
<path d="M12.5 0.899902L22.8279 5.3999H24.2185C24.4257 5.3999 24.6244 5.47892 24.7709 5.61957C24.9174 5.76022 24.9997 5.95099 24.9997 6.1499V9.1499C24.9997 9.34881 24.9174 9.53958 24.7709 9.68023C24.6244 9.82088 24.4257 9.8999 24.2185 9.8999H23.4373V20.3999C23.6117 20.4 23.7811 20.4562 23.9185 20.5595C24.0558 20.6628 24.1532 20.8073 24.1951 20.9699L24.9763 23.9699C25.0054 24.0804 25.0077 24.1958 24.9832 24.3073C24.9587 24.4188 24.9079 24.5234 24.8348 24.6132C24.7616 24.7029 24.6681 24.7754 24.5613 24.8251C24.4544 24.8748 24.3372 24.9004 24.2185 24.8999H0.781508C0.662809 24.9004 0.545564 24.8748 0.438748 24.8251C0.331932 24.7754 0.238375 24.7029 0.16524 24.6132C0.092104 24.5234 0.0413278 24.4188 0.0167971 24.3073C-0.00773347 24.1958 -0.00536808 24.0804 0.0237123 23.9699L0.804945 20.9699C0.846819 20.8073 0.944184 20.6628 1.08152 20.5595C1.21886 20.4562 1.38827 20.4 1.56274 20.3999V9.8999H0.781508C0.574312 9.8999 0.375603 9.82088 0.229093 9.68023C0.0825835 9.53958 0.000275284 9.34881 0.000275284 9.1499V6.1499C0.000275284 5.95099 0.0825835 5.76022 0.229093 5.61957C0.375603 5.47892 0.574312 5.3999 0.781508 5.3999H2.1721L12.5 0.899902ZM5.90171 5.3999H19.0999L12.5 2.3999L5.90171 5.3999ZM3.12521 9.8999V20.3999H4.68767V9.8999H3.12521ZM6.25014 9.8999V20.3999H10.1563V9.8999H6.25014ZM11.7188 9.8999V20.3999H13.2812V9.8999H11.7188ZM14.8437 9.8999V20.3999H18.7499V9.8999H14.8437ZM20.3123 9.8999V20.3999H21.8748V9.8999H20.3123ZM23.4373 8.3999V6.8999H1.56274V8.3999H23.4373ZM22.8279 21.8999H2.1721L1.78149 23.3999H23.2185L22.8279 21.8999Z" fill="#616976"/>
</svg>
