<svg width="25" height="29" viewBox="0 0 25 29" fill="none" xmlns="http://www.w3.org/2000/svg">
<path d="M5.46875 0C5.67595 0 5.87466 0.0954797 6.02118 0.265434C6.16769 0.435389 6.25 0.665898 6.25 0.90625V1.8125H18.75V0.90625C18.75 0.665898 18.8323 0.435389 18.9788 0.265434C19.1253 0.0954797 19.324 0 19.5312 0C19.7385 0 19.9372 0.0954797 20.0837 0.265434C20.2302 0.435389 20.3125 0.665898 20.3125 0.90625V1.8125H21.875C22.7038 1.8125 23.4987 2.19442 24.0847 2.87424C24.6708 3.55406 25 4.47609 25 5.4375V25.375C25 26.3364 24.6708 27.2584 24.0847 27.9383C23.4987 28.6181 22.7038 29 21.875 29H3.125C2.2962 29 1.50134 28.6181 0.915291 27.9383C0.32924 27.2584 0 26.3364 0 25.375V5.4375C0 4.47609 0.32924 3.55406 0.915291 2.87424C1.50134 2.19442 2.2962 1.8125 3.125 1.8125H4.6875V0.90625C4.6875 0.665898 4.76981 0.435389 4.91632 0.265434C5.06284 0.0954797 5.26155 0 5.46875 0ZM1.5625 7.25V25.375C1.5625 25.8557 1.72712 26.3167 2.02015 26.6566C2.31317 26.9965 2.7106 27.1875 3.125 27.1875H21.875C22.2894 27.1875 22.6868 26.9965 22.9799 26.6566C23.2729 26.3167 23.4375 25.8557 23.4375 25.375V7.25H1.5625Z" fill="#7F7F7F" fill-opacity="0.8"/>
</svg>
