<svg width="23" height="23" viewBox="0 0 23 23" fill="none" xmlns="http://www.w3.org/2000/svg">
<path d="M20.125 2.33789C20.5062 2.33789 20.8719 2.48934 21.1415 2.75892C21.411 3.02851 21.5625 3.39414 21.5625 3.77539V15.2754C21.5625 15.6566 21.411 16.0223 21.1415 16.2919C20.8719 16.5614 20.5062 16.7129 20.125 16.7129H6.34513C5.58269 16.7131 4.85154 17.0161 4.3125 17.5553L1.4375 20.4303V3.77539C1.4375 3.39414 1.58895 3.02851 1.85853 2.75892C2.12812 2.48934 2.49375 2.33789 2.875 2.33789H20.125ZM2.875 0.900391C2.1125 0.900391 1.38124 1.20329 0.842068 1.74246C0.302901 2.28163 0 3.01289 0 3.77539L0 22.1653C3.02089e-05 22.3075 0.0422518 22.4466 0.121321 22.5648C0.20039 22.683 0.312753 22.7751 0.444187 22.8294C0.575621 22.8837 0.720218 22.8979 0.859677 22.87C0.999136 22.8421 1.12719 22.7735 1.22762 22.6728L5.32881 18.5716C5.59833 18.302 5.96391 18.1505 6.34513 18.1504H20.125C20.8875 18.1504 21.6188 17.8475 22.1579 17.3083C22.6971 16.7692 23 16.0379 23 15.2754V3.77539C23 3.01289 22.6971 2.28163 22.1579 1.74246C21.6188 1.20329 20.8875 0.900391 20.125 0.900391L2.875 0.900391Z" fill="#616976"/>
</svg>
