<svg width="22" height="25" viewBox="0 0 22 25" fill="none" xmlns="http://www.w3.org/2000/svg">
<path d="M5.50016 9.99951C5.25705 9.99951 5.02389 10.0818 4.85198 10.2283C4.68007 10.3748 4.5835 10.5736 4.5835 10.7808C4.5835 10.988 4.68007 11.1867 4.85198 11.3332C5.02389 11.4797 5.25705 11.562 5.50016 11.562H16.5002C16.7433 11.562 16.9764 11.4797 17.1483 11.3332C17.3203 11.1867 17.4168 10.988 17.4168 10.7808C17.4168 10.5736 17.3203 10.3748 17.1483 10.2283C16.9764 10.0818 16.7433 9.99951 16.5002 9.99951H5.50016ZM4.5835 13.9058C4.5835 13.6986 4.68007 13.4998 4.85198 13.3533C5.02389 13.2068 5.25705 13.1245 5.50016 13.1245H16.5002C16.7433 13.1245 16.9764 13.2068 17.1483 13.3533C17.3203 13.4998 17.4168 13.6986 17.4168 13.9058C17.4168 14.113 17.3203 14.3117 17.1483 14.4582C16.9764 14.6047 16.7433 14.687 16.5002 14.687H5.50016C5.25705 14.687 5.02389 14.6047 4.85198 14.4582C4.68007 14.3117 4.5835 14.113 4.5835 13.9058ZM5.50016 16.2495C5.25705 16.2495 5.02389 16.3318 4.85198 16.4783C4.68007 16.6248 4.5835 16.8236 4.5835 17.0308C4.5835 17.238 4.68007 17.4367 4.85198 17.5832C5.02389 17.7297 5.25705 17.812 5.50016 17.812H16.5002C16.7433 17.812 16.9764 17.7297 17.1483 17.5832C17.3203 17.4367 17.4168 17.238 17.4168 17.0308C17.4168 16.8236 17.3203 16.6248 17.1483 16.4783C16.9764 16.3318 16.7433 16.2495 16.5002 16.2495H5.50016ZM5.50016 19.3745C5.25705 19.3745 5.02389 19.4568 4.85198 19.6033C4.68007 19.7498 4.5835 19.9486 4.5835 20.1558C4.5835 20.363 4.68007 20.5617 4.85198 20.7082C5.02389 20.8547 5.25705 20.937 5.50016 20.937H11.0002C11.2433 20.937 11.4764 20.8547 11.6483 20.7082C11.8203 20.5617 11.9168 20.363 11.9168 20.1558C11.9168 19.9486 11.8203 19.7498 11.6483 19.6033C11.4764 19.4568 11.2433 19.3745 11.0002 19.3745H5.50016Z" fill="#616976"/>
<path d="M0 3.125C0 2.2962 0.386308 1.50134 1.07394 0.915291C1.76157 0.32924 2.69421 0 3.66667 0L18.3333 0C19.3058 0 20.2384 0.32924 20.9261 0.915291C21.6137 1.50134 22 2.2962 22 3.125V21.875C22 22.7038 21.6137 23.4987 20.9261 24.0847C20.2384 24.6708 19.3058 25 18.3333 25H3.66667C2.69421 25 1.76157 24.6708 1.07394 24.0847C0.386308 23.4987 0 22.7038 0 21.875V3.125ZM18.3333 1.5625H3.66667C3.18044 1.5625 2.71412 1.72712 2.3703 2.02015C2.02649 2.31317 1.83333 2.7106 1.83333 3.125V21.875C1.83333 22.2894 2.02649 22.6868 2.3703 22.9799C2.71412 23.2729 3.18044 23.4375 3.66667 23.4375H18.3333C18.8196 23.4375 19.2859 23.2729 19.6297 22.9799C19.9735 22.6868 20.1667 22.2894 20.1667 21.875V3.125C20.1667 2.7106 19.9735 2.31317 19.6297 2.02015C19.2859 1.72712 18.8196 1.5625 18.3333 1.5625Z" fill="#616976"/>
</svg>
