<svg width="24" height="25" viewBox="0 0 24 25" fill="none" xmlns="http://www.w3.org/2000/svg">
<path d="M5.70005 0C5.8857 0 6.06375 0.0816516 6.19502 0.226992C6.3263 0.372333 6.40005 0.569457 6.40005 0.775V1.55H17.6V0.775C17.6 0.569457 17.6738 0.372333 17.8051 0.226992C17.9363 0.0816516 18.1144 0 18.3001 0C18.4857 0 18.6637 0.0816516 18.795 0.226992C18.9263 0.372333 19 0.569457 19 0.775V1.55H20.4001C21.1427 1.55 21.8548 1.87661 22.3799 2.45797C22.9051 3.03933 23.2001 3.82783 23.2001 4.65V21.7C23.2001 22.5222 22.9051 23.3107 22.3799 23.892C21.8548 24.4734 21.1427 24.8 20.4001 24.8H3.60005C2.85744 24.8 2.14525 24.4734 1.62015 23.892C1.09505 23.3107 0.800049 22.5222 0.800049 21.7V4.65C0.800049 3.82783 1.09505 3.03933 1.62015 2.45797C2.14525 1.87661 2.85744 1.55 3.60005 1.55H5.00005V0.775C5.00005 0.569457 5.0738 0.372333 5.20507 0.226992C5.33635 0.0816516 5.5144 0 5.70005 0ZM3.60005 3.1C3.22875 3.1 2.87265 3.2633 2.6101 3.55398C2.34755 3.84467 2.20005 4.23891 2.20005 4.65V6.2H21.8001V4.65C21.8001 4.23891 21.6525 3.84467 21.39 3.55398C21.1274 3.2633 20.7714 3.1 20.4001 3.1H3.60005ZM21.8001 7.75H2.20005V21.7C2.20005 22.1111 2.34755 22.5053 2.6101 22.796C2.87265 23.0867 3.22875 23.25 3.60005 23.25H20.4001C20.7714 23.25 21.1274 23.0867 21.39 22.796C21.6525 22.5053 21.8001 22.1111 21.8001 21.7V7.75Z" fill="#616976"/>
</svg>
