<svg width="34" height="45" viewBox="0 0 34 45" fill="none" xmlns="http://www.w3.org/2000/svg">
<path d="M10.125 19.6875C9.76033 19.6875 9.41059 19.8357 9.15273 20.0994C8.89487 20.3631 8.75 20.7208 8.75 21.0938C8.75 21.4667 8.89487 21.8244 9.15273 22.0881C9.41059 22.3518 9.76033 22.5 10.125 22.5H23.875C24.2397 22.5 24.5894 22.3518 24.8473 22.0881C25.1051 21.8244 25.25 21.4667 25.25 21.0938C25.25 20.7208 25.1051 20.3631 24.8473 20.0994C24.5894 19.8357 24.2397 19.6875 23.875 19.6875H10.125ZM8.75 26.7188C8.75 26.3458 8.89487 25.9881 9.15273 25.7244C9.41059 25.4607 9.76033 25.3125 10.125 25.3125H23.875C24.2397 25.3125 24.5894 25.4607 24.8473 25.7244C25.1051 25.9881 25.25 26.3458 25.25 26.7188C25.25 27.0917 25.1051 27.4494 24.8473 27.7131C24.5894 27.9768 24.2397 28.125 23.875 28.125H10.125C9.76033 28.125 9.41059 27.9768 9.15273 27.7131C8.89487 27.4494 8.75 27.0917 8.75 26.7188ZM8.75 32.3438C8.75 31.9708 8.89487 31.6131 9.15273 31.3494C9.41059 31.0857 9.76033 30.9375 10.125 30.9375H15.625C15.9897 30.9375 16.3394 31.0857 16.5973 31.3494C16.8551 31.6131 17 31.9708 17 32.3438C17 32.7167 16.8551 33.0744 16.5973 33.3381C16.3394 33.6018 15.9897 33.75 15.625 33.75H10.125C9.76033 33.75 9.41059 33.6018 9.15273 33.3381C8.89487 33.0744 8.75 32.7167 8.75 32.3438Z" fill="#7F7F7F"/>
<path d="M21.125 0H6C4.54131 0 3.14236 0.592632 2.11091 1.64752C1.07946 2.70242 0.5 4.13316 0.5 5.625V39.375C0.5 40.8668 1.07946 42.2976 2.11091 43.3525C3.14236 44.4074 4.54131 45 6 45H28C29.4587 45 30.8576 44.4074 31.8891 43.3525C32.9205 42.2976 33.5 40.8668 33.5 39.375V12.6562L21.125 0ZM21.125 2.8125V8.4375C21.125 9.55638 21.5596 10.6294 22.3332 11.4206C23.1068 12.2118 24.156 12.6562 25.25 12.6562H30.75V39.375C30.75 40.1209 30.4603 40.8363 29.9445 41.3637C29.4288 41.8912 28.7293 42.1875 28 42.1875H6C5.27065 42.1875 4.57118 41.8912 4.05546 41.3637C3.53973 40.8363 3.25 40.1209 3.25 39.375V5.625C3.25 4.87908 3.53973 4.16371 4.05546 3.63626C4.57118 3.10882 5.27065 2.8125 6 2.8125H21.125Z" fill="#7F7F7F"/>
</svg>
