<svg width="32" height="26" viewBox="0 0 32 26" fill="none" xmlns="http://www.w3.org/2000/svg">
<path d="M30 26C30 26 32 26 32 23.8333C32 21.6667 30 15.1667 22 15.1667C14 15.1667 12 21.6667 12 23.8333C12 26 14 26 14 26H30ZM14.044 23.8333L14 23.8247C14.002 23.2527 14.334 21.593 15.52 20.098C16.624 18.6962 18.564 17.3333 22 17.3333C25.434 17.3333 27.374 18.6983 28.48 20.098C29.666 21.593 29.996 23.2548 30 23.8247L29.984 23.829L29.956 23.8333H14.044ZM22 10.8333C23.0609 10.8333 24.0783 10.3768 24.8284 9.56413C25.5786 8.75147 26 7.64927 26 6.5C26 5.35073 25.5786 4.24853 24.8284 3.43587C24.0783 2.62321 23.0609 2.16667 22 2.16667C20.9391 2.16667 19.9217 2.62321 19.1716 3.43587C18.4214 4.24853 18 5.35073 18 6.5C18 7.64927 18.4214 8.75147 19.1716 9.56413C19.9217 10.3768 20.9391 10.8333 22 10.8333ZM28 6.5C28 7.35359 27.8448 8.19883 27.5433 8.98744C27.2418 9.77606 26.7998 10.4926 26.2426 11.0962C25.6855 11.6998 25.0241 12.1786 24.2961 12.5052C23.5681 12.8319 22.7879 13 22 13C21.2121 13 20.4319 12.8319 19.7039 12.5052C18.9759 12.1786 18.3145 11.6998 17.7574 11.0962C17.2002 10.4926 16.7583 9.77606 16.4567 8.98744C16.1552 8.19883 16 7.35359 16 6.5C16 4.77609 16.6321 3.12279 17.7574 1.90381C18.8826 0.68482 20.4087 0 22 0C23.5913 0 25.1174 0.68482 26.2426 1.90381C27.3679 3.12279 28 4.77609 28 6.5ZM13.872 15.7733C13.0715 15.5023 12.247 15.3229 11.412 15.2382C10.9427 15.1886 10.4715 15.1647 10 15.1667C2 15.1667 0 21.6667 0 23.8333C0 25.2778 0.666667 26 2 26H10.432C10.1356 25.3235 9.98779 24.582 10 23.8333C10 21.645 10.754 19.409 12.18 17.5413C12.666 16.9043 13.232 16.3085 13.872 15.7733ZM9.84 17.3333C8.65705 19.2605 8.01769 21.5191 8 23.8333H2C2 23.27 2.328 21.6017 3.52 20.098C4.61 18.72 6.504 17.3767 9.84 17.3355V17.3333ZM3 7.58333C3 5.85943 3.63214 4.20613 4.75736 2.98714C5.88258 1.76815 7.4087 1.08333 9 1.08333C10.5913 1.08333 12.1174 1.76815 13.2426 2.98714C14.3679 4.20613 15 5.85943 15 7.58333C15 9.30724 14.3679 10.9605 13.2426 12.1795C12.1174 13.3985 10.5913 14.0833 9 14.0833C7.4087 14.0833 5.88258 13.3985 4.75736 12.1795C3.63214 10.9605 3 9.30724 3 7.58333ZM9 3.25C7.93913 3.25 6.92172 3.70655 6.17157 4.5192C5.42143 5.33186 5 6.43406 5 7.58333C5 8.7326 5.42143 9.83481 6.17157 10.6475C6.92172 11.4601 7.93913 11.9167 9 11.9167C10.0609 11.9167 11.0783 11.4601 11.8284 10.6475C12.5786 9.83481 13 8.7326 13 7.58333C13 6.43406 12.5786 5.33186 11.8284 4.5192C11.0783 3.70655 10.0609 3.25 9 3.25Z" fill="#616976"/>
</svg>
