<svg width="23" height="26" viewBox="0 0 23 26" fill="none" xmlns="http://www.w3.org/2000/svg">
<path fill-rule="evenodd" clip-rule="evenodd" d="M9.2002 13.0663V2.33301H10.7335V11.7124L13.4061 10.107C13.5252 10.0357 13.6614 9.99798 13.8002 9.99798C13.939 9.99798 14.0752 10.0357 14.1943 10.107L16.8669 11.7124V2.33301H18.4002V13.0663C18.4002 13.202 18.3643 13.3352 18.296 13.4524C18.2277 13.5696 18.1295 13.6666 18.0115 13.7335C17.8935 13.8004 17.7599 13.8348 17.6242 13.8331C17.4886 13.8315 17.3558 13.7939 17.2395 13.7241L13.8002 11.6603L10.3609 13.7257C10.2445 13.7955 10.1115 13.8331 9.97578 13.8347C9.84001 13.8362 9.70626 13.8017 9.5882 13.7347C9.47014 13.6676 9.372 13.5704 9.30383 13.453C9.23566 13.3355 9.1999 13.2021 9.2002 13.0663Z" fill="#616976"/>
<path d="M4.59987 0.799805H19.9332C20.7465 0.799805 21.5266 1.1229 22.1017 1.69801C22.6768 2.27312 22.9999 3.05314 22.9999 3.86647V22.2665C22.9999 23.0798 22.6768 23.8598 22.1017 24.4349C21.5266 25.01 20.7465 25.3331 19.9332 25.3331H4.59987C3.78654 25.3331 3.00652 25.01 2.43141 24.4349C1.8563 23.8598 1.5332 23.0798 1.5332 22.2665V20.7331H3.06654V22.2665C3.06654 22.6731 3.22808 23.0631 3.51564 23.3507C3.8032 23.6383 4.1932 23.7998 4.59987 23.7998H19.9332C20.3399 23.7998 20.7299 23.6383 21.0174 23.3507C21.305 23.0631 21.4665 22.6731 21.4665 22.2665V3.86647C21.4665 3.45981 21.305 3.0698 21.0174 2.78224C20.7299 2.49469 20.3399 2.33314 19.9332 2.33314H4.59987C4.1932 2.33314 3.8032 2.49469 3.51564 2.78224C3.22808 3.0698 3.06654 3.45981 3.06654 3.86647V5.3998H1.5332V3.86647C1.5332 3.05314 1.8563 2.27312 2.43141 1.69801C3.00652 1.1229 3.78654 0.799805 4.59987 0.799805Z" fill="#616976"/>
<path d="M1.53333 8.46644V7.69977C1.53333 7.49644 1.61411 7.30143 1.75788 7.15766C1.90166 7.01388 2.09667 6.93311 2.3 6.93311C2.50333 6.93311 2.69834 7.01388 2.84212 7.15766C2.98589 7.30143 3.06667 7.49644 3.06667 7.69977V8.46644H3.83333C4.03667 8.46644 4.23167 8.54721 4.37545 8.69099C4.51923 8.83477 4.6 9.02977 4.6 9.23311C4.6 9.43644 4.51923 9.63144 4.37545 9.77522C4.23167 9.919 4.03667 9.99977 3.83333 9.99977H0.766667C0.563334 9.99977 0.368329 9.919 0.224551 9.77522C0.0807736 9.63144 0 9.43644 0 9.23311C0 9.02977 0.0807736 8.83477 0.224551 8.69099C0.368329 8.54721 0.563334 8.46644 0.766667 8.46644H1.53333ZM1.53333 13.0664V12.2998C1.53333 12.0964 1.61411 11.9014 1.75788 11.7577C1.90166 11.6139 2.09667 11.5331 2.3 11.5331C2.50333 11.5331 2.69834 11.6139 2.84212 11.7577C2.98589 11.9014 3.06667 12.0964 3.06667 12.2998V13.0664H3.83333C4.03667 13.0664 4.23167 13.1472 4.37545 13.291C4.51923 13.4348 4.6 13.6298 4.6 13.8331C4.6 14.0364 4.51923 14.2314 4.37545 14.3752C4.23167 14.519 4.03667 14.5998 3.83333 14.5998H0.766667C0.563334 14.5998 0.368329 14.519 0.224551 14.3752C0.0807736 14.2314 0 14.0364 0 13.8331C0 13.6298 0.0807736 13.4348 0.224551 13.291C0.368329 13.1472 0.563334 13.0664 0.766667 13.0664H1.53333ZM1.53333 17.6664V16.8998C1.53333 16.6964 1.61411 16.5014 1.75788 16.3577C1.90166 16.2139 2.09667 16.1331 2.3 16.1331C2.50333 16.1331 2.69834 16.2139 2.84212 16.3577C2.98589 16.5014 3.06667 16.6964 3.06667 16.8998V17.6664H3.83333C4.03667 17.6664 4.23167 17.7472 4.37545 17.891C4.51923 18.0348 4.6 18.2298 4.6 18.4331C4.6 18.6364 4.51923 18.8314 4.37545 18.9752C4.23167 19.119 4.03667 19.1998 3.83333 19.1998H0.766667C0.563334 19.1998 0.368329 19.119 0.224551 18.9752C0.0807736 18.8314 0 18.6364 0 18.4331C0 18.2298 0.0807736 18.0348 0.224551 17.891C0.368329 17.7472 0.563334 17.6664 0.766667 17.6664H1.53333Z" fill="#616976"/>
</svg>
