<svg width="80" height="80" viewBox="0 0 80 80" fill="none" xmlns="http://www.w3.org/2000/svg">
<rect width="80" height="80" fill="#FDFFFF"/>
<path d="M75 70C75 70 80 70 80 65C80 60 75 45 55 45C35 45 30 60 30 65C30 70 35 70 35 70H75ZM35.11 65L35 64.98C35.005 63.66 35.835 59.83 38.8 56.38C41.56 53.145 46.41 50 55 50C63.585 50 68.435 53.15 71.2 56.38C74.165 59.83 74.99 63.665 75 64.98L74.96 64.99L74.89 65H35.11ZM55 35C57.6522 35 60.1957 33.9464 62.0711 32.0711C63.9464 30.1957 65 27.6522 65 25C65 22.3478 63.9464 19.8043 62.0711 17.9289C60.1957 16.0536 57.6522 15 55 15C52.3478 15 49.8043 16.0536 47.9289 17.9289C46.0536 19.8043 45 22.3478 45 25C45 27.6522 46.0536 30.1957 47.9289 32.0711C49.8043 33.9464 52.3478 35 55 35ZM70 25C70 26.9698 69.612 28.9204 68.8582 30.7403C68.1044 32.5601 66.9995 34.2137 65.6066 35.6066C64.2137 36.9995 62.5601 38.1044 60.7402 38.8582C58.9204 39.612 56.9698 40 55 40C53.0302 40 51.0796 39.612 49.2598 38.8582C47.4399 38.1044 45.7863 36.9995 44.3934 35.6066C43.0005 34.2137 41.8956 32.5601 41.1418 30.7403C40.388 28.9204 40 26.9698 40 25C40 21.0218 41.5803 17.2064 44.3934 14.3934C47.2064 11.5804 51.0218 10 55 10C58.9782 10 62.7936 11.5804 65.6066 14.3934C68.4196 17.2064 70 21.0218 70 25ZM34.68 46.4C32.6788 45.7746 30.6175 45.3606 28.53 45.165C27.3569 45.0506 26.1787 44.9955 25 45C5 45 0 60 0 65C0 68.3333 1.66667 70 5 70H26.08C25.3391 68.439 24.9695 66.7277 25 65C25 59.95 26.885 54.79 30.45 50.48C31.665 49.01 33.08 47.635 34.68 46.4ZM24.6 50C21.6426 54.4472 20.0442 59.6594 20 65H5C5 63.7 5.82 59.85 8.8 56.38C11.525 53.2 16.26 50.1 24.6 50.005V50ZM7.5 27.5C7.5 23.5218 9.08035 19.7064 11.8934 16.8934C14.7064 14.0804 18.5218 12.5 22.5 12.5C26.4782 12.5 30.2936 14.0804 33.1066 16.8934C35.9196 19.7064 37.5 23.5218 37.5 27.5C37.5 31.4782 35.9196 35.2936 33.1066 38.1066C30.2936 40.9196 26.4782 42.5 22.5 42.5C18.5218 42.5 14.7064 40.9196 11.8934 38.1066C9.08035 35.2936 7.5 31.4782 7.5 27.5ZM22.5 17.5C19.8478 17.5 17.3043 18.5536 15.4289 20.4289C13.5536 22.3043 12.5 24.8478 12.5 27.5C12.5 30.1522 13.5536 32.6957 15.4289 34.5711C17.3043 36.4464 19.8478 37.5 22.5 37.5C25.1522 37.5 27.6957 36.4464 29.5711 34.5711C31.4464 32.6957 32.5 30.1522 32.5 27.5C32.5 24.8478 31.4464 22.3043 29.5711 20.4289C27.6957 18.5536 25.1522 17.5 22.5 17.5Z" fill="#459CFF"/>
</svg>
