<svg width="80" height="68" viewBox="0 0 80 68" fill="none" xmlns="http://www.w3.org/2000/svg">
<path d="M2.5 0C1.83696 0 1.20107 0.253985 0.732233 0.706082C0.263392 1.15818 0 1.77135 0 2.41071L0 65.0893C0 65.7287 0.263392 66.3418 0.732233 66.7939C1.20107 67.246 1.83696 67.5 2.5 67.5H77.5C78.163 67.5 78.7989 67.246 79.2678 66.7939C79.7366 66.3418 80 65.7287 80 65.0893V2.41071C80 1.77135 79.7366 1.15818 79.2678 0.706082C78.7989 0.253985 78.163 0 77.5 0H2.5ZM5 19.2857V4.82143H75V19.2857H5ZM5 24.1071H75V62.6786H5V24.1071Z" fill="#459CFF"/>
</svg>
